<svg width="58.639" height="16" xmlns="http://www.w3.org/2000/svg"><defs><clipPath clipPathUnits="userSpaceOnUse" id="a"><path d="M0 2834.646h14116.535V0H0Z" transform="translate(-10646.432 -1092.011)"/></clipPath><clipPath clipPathUnits="userSpaceOnUse" id="b"><path d="M0 2834.646h14116.535V0H0Z" transform="translate(-6004.454 -1155.321)"/></clipPath><clipPath clipPathUnits="userSpaceOnUse" id="c"><path d="M0 2834.646h14116.535V0H0Z" transform="translate(-4473.718 -1902.393)"/></clipPath><clipPath clipPathUnits="userSpaceOnUse" id="d"><path d="M0 2834.646h14116.535V0H0Z" transform="translate(-7049.562 -1779.306)"/></clipPath><clipPath clipPathUnits="userSpaceOnUse" id="e"><path d="M0 2834.646h14116.535V0H0Z" transform="translate(-6408.667 -1028.255)"/></clipPath><clipPath clipPathUnits="userSpaceOnUse" id="f"><path d="M0 2834.646h14116.535V0H0Z" transform="translate(-5718.95 -588.056)"/></clipPath></defs><path d="M0 0c-12.828 11.461-28.156 18.825-43.648 25.886-92.254 42.092-142.903 114.475-156.073 214.225-10.016 75.845 3.99 149.544 19.814 223.066 19.808 92.008 49.15 181.786 65.511 274.559 15.853 89.886 22.562 181.026 30.361 271.762 7.063 82.236-14.619 159.643-58.451 230.868-15.608 25.358-35.84 35.259-63.764 37.633-46.309 3.941-89.675-8.89-133.589-19.936-34.905-8.785-69.632-18.542-106.62-10.497-102.565 22.32-206.175 26.166-310.703 17.765-54.274-4.36-108.015-18.89-162.804-12.724-78.088 8.794-156.069 18.862-233.819 30.294-22.651 3.326-43.641 2.137-64.557-5.433-45.321-16.406-55.093-49.083-23.36-84.887 17.15-19.348 26.857-41.162 33.941-64.986 27.375-92.03 30.775-187.053 32.719-281.883 3.062-148.849-5.947-297.436-17.187-445.754-7.806-103.002-12.379-206.344-28.229-308.719-7.104-45.906-30.262-75.014-74.793-87.303-20.4-5.629-40.128-12.693-57.602-28.243-8.153 23.728-18.862 44.299-31.627 63.72-7.1 10.794-11.499 22.475-15.341 34.711-27.403 87.187-37.621 177.123-42.025 267.808-5.3 109.001-14.789 217.621-27.103 325.995-16.007 140.878-29.667 281.864-24.062 423.937 1.375 34.968.073 70.891 28.081 98.484 2.87 2.826 4.233 7.316 5.903 11.196 9.298 21.594 14.858 43.897-.417 64.581-15.45 20.916-38.81 21.427-61.893 18.381-31.575-4.168-62.9-10.469-94.535-13.978-50.501-5.607-100.901-16.036-152.086-6.875-95.596 17.109-191.624 19.226-287.775 6.403-69.084-9.218-138.058-12.914-207.643-6.624-56.422 5.103-113.007 8.452-169.552 11.961-19.606 1.218-39.055-1.644-50.653-19.989-11.465-18.141-3.438-35.846 5.782-52.046 6.975-12.252 16.172-23.222 24.176-34.903 12.037-17.565 17.7-36.647 14.688-58.215-23.113-165.482-53.917-329.692-81.266-494.472-23.527-141.72-51.276-282.751-46.755-427.938 2.116-68.074-4.99-135.86-65.433-184.993-21.26-17.276-12.802-39.534 14.187-47.61 35.613-10.659 71.446-6.513 107.207.554 74.055 14.637 148.573 22.817 223.8 10.534 86.04-14.055 170.934-7.909 254.838 13.589 38.16 9.777 65.069 33.987 76.329 72.507 9.019 30.843-8.18 55.842-40.01 58.961-13.287 1.297-27.775 2.543-40.132-1.297-28.632-8.901-54.514-1.41-80.449 8.457-84.937 32.332-135.016 97.888-167.69 178.926-37.184 92.257-46.885 188.862-43.588 287.524 3.457 103.522 24.231 203.139 59.727 300.462 49.183 134.851 140.557 225.053 276.755 269.47 71.87 23.439 138.444 17.274 194.085-39.93 70.228-72.205 91.321-219.879 43.92-308.38-12.325-23.021-28.777-42.464-53.668-52.326-24.954-9.882-50.125-19.483-75.798-27.243-63.201-19.09-125.406-19.859-185.16 13.25-24.423 13.527-43.763 33.154-64.569 53.318-13.137-7.957-26.225-14.891-38.249-23.332-72.635-51.003-83.214-112.284-34.173-186.524 15.823-23.945 37.323-33.405 64.373-34.106 46.017-1.198 89.491 12.348 133.415 23.241 49.383 12.244 98.038 28.322 149.724 28.48 65.106.201 95.329-29.138 101.155-93.991 7.953-88.458.464-175.99-19.707-261.651-21.727-92.239-37.579-188.203-112.599-258.02-12.069-11.241-7.303-21.422 9.308-25.256 19.535-4.51 39.567-5.056 59.264-3.275 107.493 9.731 215.047 10.294 322.668 3.179 30.374-2.004 60.658-5.375 91-8 28.796-2.484 56.73-1.509 85.302-15.019 28.324-13.399 62.326-7.7 94.095-.825 81.254 17.585 163.582 25.403 246.712 26.514 73.93.992 147.002-8.116 220.285-15.558 16.785-1.704 39.393-9.656 48.507 9.175 9.514 19.652-8.951 35.747-20.997 49.814-16.532 19.308-36.611 35.575-53.175 54.858-77.813 90.575-108.069 198.714-114.135 315.373-5.706 109.646 10.142 217.641 25.728 325.62 12.531 86.859 28.232 173.362 32.339 261.207 1.78 37.998 12.383 72.271 34.112 103.252 68.757 98.032 198.057 114.548 281.001 35.617 31.443-29.918 51.623-67.277 66.699-107.376 29.858-79.399 37.845-162.622 37.975-246.39.2-129.366-16.959-257.141-43.918-383.456-21.219-99.456-38.07-200.257-80.835-293.903-4.347-9.517-6.324-20.266-8.43-30.639-9.317-45.961 11.386-77.888 56.803-88.538 30.098-7.062 61.039-8.435 90.891-3.49 104.062 17.237 207.424 11.47 310.915-3.987 29.534-4.405 59.472-6.505 88.134 4.942C18.025-37.898 21.106-18.862 0 0" style="fill:#fff;fill-opacity:1;fill-rule:nonzero;stroke:none" transform="matrix(.00814 0 0 -.00814 58.526 10.647)" clip-path="url(#a)"/><path d="M0 0c-28.007 94.539-37.525 191.69-41.793 289.38-5.293 121.14-19.8 241.354-32.239 361.802-11.649 112.808-22.434 225.762-18.115 339.336 1.656 43.626-1.854 88.47 31.165 126.303 15.819 18.121 19.073 45.22 4.821 68.099-14.544 23.343-39.333 23.061-62.994 20.184-33.722-4.103-67.126-11.009-100.896-14.504-49.814-5.166-99.678-15.657-149.971-5.94-50.292 9.721-100.988 13.332-152.072 14.137-63.987 1.009-127.147-7.448-190.506-14.541-97.271-10.89-193.673 5.584-290.43 10.921-16.899.936-33.832 3.728-50.696-.844-28.73-7.797-39.07-26.559-29.661-54.794 5.013-15.06 14.646-27.474 24.52-39.528 19.223-23.465 24.772-49.908 20.464-79.631-19.18-132.427-42.831-264.101-64.872-396.053-30.073-180.025-68.596-358.923-63.134-543.376 1.7-57.187-11.023-111.875-60.327-152.41-26.542-21.817-17.202-46.856 16.522-54.392 31.638-7.067 63.089-4.886 94.77 1.305 71.076 13.894 142.775 25.624 215.167 13.798 90.22-14.747 179.268-11.235 267.651 10.704 36.565 9.076 63.136 31.591 76.782 67.164 12.764 33.273-3.236 59.102-38.314 65.373-18.025 3.218-35.311.147-52.488-3.945-9.98-2.376-19.613-2.73-29.422-.622-48.232 10.371-90.35 32.146-125.961 66.619-47.66 46.149-78.091 102.754-95.184 165.679-56.559 208.212-32.457 409.235 57.143 604.047 52.381 113.898 145.82 177.968 260.734 214.335 85.082 26.935 159.218 1.766 204.728-69.32 53.172-83.067 63.07-172.975 29.793-266.305-10.467-29.371-28.619-54.112-58.643-66.772-22.777-9.61-45.957-18.465-69.466-26.086-40.848-13.256-82.652-19.297-125.644-12.555-52.857 8.277-94.508 36.124-131.238 76.509-34.1-17.186-64.324-36.576-85.139-67.484-30.887-45.852-18.324-89.416 6.131-133.565 22.993-41.492 59.022-46.389 100.171-41.408 38.769 4.694 76.259 15.262 113.939 24.898 47.976 12.277 95.598 26.909 145.818 26.086 51.686-.853 82.673-25.315 91.144-71.611 2.668-14.589 4.048-29.509 4.79-44.338 4.476-89.818-4.096-178.808-26.748-265.475-21.827-83.505-38.098-170.562-107.45-233.015-12.566-11.311-6.838-22.756 11.735-25.491 21.04-3.1 42.341-3.281 63.642-1.639 138.066 10.628 275.947 9.588 413.644-6.301 14.164-1.633 31.929-8.262 42.014 5.798 11.004 15.347-.633 31.052-7.187 45.655C25.46-48.757 8.052-27.172 0 0" style="fill:#fff;fill-opacity:1;fill-rule:nonzero;stroke:none" transform="matrix(.00814 0 0 -.00814 20.739 10.132)" clip-path="url(#b)"/><path d="M0 0c-37.011 34.346-70.557 39.842-116.165 19.009-163.808-74.842-333.073-96.956-508.837-49.558-56.784 15.313-109.912 38.116-149.705 83.689-26.05 29.828-42.238 64.152-36.283 104.93 7.985 54.634 51.151 95.243 113.563 108.622 75.055 16.084 145.739-1.975 216.02-26.508 104.861-36.601 212.096-62.281 324.166-57.449 74.983 3.236 144.299 23.538 196.155 82.27 31.333 35.491 56.343 75.373 58.465 124.289 1.585 36.545-26.395 54.092-59.944 39.828-13.236-5.626-26.614-9.056-40.972-9.893-82.513-4.784-163.92 7.697-245.587 15.688-104.291 10.207-208.402 22.634-330.16 24.448-41.775 2.671-98.893-4.382-155.091-21.806-149.597-46.378-220.056-151.166-203.365-307.111 9.119-85.138 24.309-169.525 32.269-254.875 12.985-139.276 19.833-278.501-1.707-417.452-13.914-89.744-39.284-175.509-98.199-247.652-6.546-8.011-9.226-17.613-11.177-27.24-3.625-17.864 3.166-30.314 21.059-36.093 15.997-5.171 32.074-3.764 48.367-1.752 69.127 8.506 138.319 9.393 207.83 4.033 45.189-3.482 89.042-16.531 134.892-15.333 75.674 1.99 118.616 43.505 119.229 119.412.67 83.047-20.485 160.855-59.061 234.154-17.788 33.807-36.243 67.3-52.855 101.683-25.872 53.538-50.613 107.591-55.856 168.143-4.258 49.221 18.88 81.872 67.451 92.352 53.314 11.501 105.686 1.405 157.89-8.663 114.368-22.044 218.95-64.158 298.389-153.326 66.666-74.83 101.756-161.734 85.679-263.358-16.66-105.33-101.457-169.977-211.253-124.621-15.781 6.519-32.031 11.223-49.488 10.229-27.147-1.543-46.243-18.656-50.371-45.698-4.964-32.54 6.612-60.026 27.225-84.073 26.853-31.322 62.119-49.206 101.706-57.624 101.526-21.597 199.002-3.784 292.174 37.11 120.197 52.759 192.235 144.71 207.782 276.254 11.637 98.499-12.67 191.17-55.138 279.564C166.151-174.153 89.015-82.592 0 0" style="fill:#fff;fill-opacity:1;fill-rule:nonzero;stroke:none" transform="matrix(.00814 0 0 -.00814 8.277 4.05)" clip-path="url(#c)"/><path d="M0 0c29.678-32.798 64.793-59.136 102.162-82.601 87.244-54.784 182.894-92.66 275.213-137.255 59.951-28.958 120.232-57.981 167.709-106.453 74.856-76.418 49.252-215.146-48.208-260.507-52.972-24.657-109.213-32.156-165.873-18.056-63.306 15.759-108.483 52.504-122.743 120.417-8.153 38.839-35.157 48.012-67.952 24.957-58.3-40.984-74.292-132.769-33.975-194.352 24.588-37.559 59.323-62.346 100.235-78.907 63.743-25.813 130.679-30.154 198.3-26.627 105.774 5.513 210.137 18.46 307.667 64.095C820.92-644.57 904.724-571 939.897-451.959c20.916 70.778 17.061 142.921 11.95 215.174-3.597 50.749-23.993 93.949-56.926 132.096-10.118 11.723-21.822 18.508-36.76 22.888C660.456-23.852 465.114 40.8 278.519 129.219c-51.827 24.558-102.633 51.027-145.976 89.835-28.925 25.906-30.625 57.675-21.704 91.448 8.547 32.363 34.279 44.838 64.646 50.289 51.525 9.254 101.903-.384 151.464-12.052 97.381-22.919 194.734-44.567 295.675-41.535 14.18 0 28.366.243 42.542-.036 85.298-1.699 153.058 28.078 196.03 105.763 15.377 27.802 35.663 52.846 51.844 80.25 16.444 27.866 24.177 59.096 23.808 91.343-.33 29.872-18.201 42.024-46.974 34.065-11.538-3.196-22.529-8.344-34.002-11.851-118.733-36.326-241.004-49.75-364.393-54.232-104.878-3.803-209.701-.203-314.353 7.85-9.22.706-17.868 1.031-26.189-5.134-30.177-22.383-60.57-44.454-86.482-71.929C-2.651 412.128-39.032 324.989-61.867 232.027-83.367 144.472-60.273 66.627 0 0" style="fill:#fff;fill-opacity:1;fill-rule:nonzero;stroke:none" transform="matrix(.00814 0 0 -.00814 29.246 5.052)" clip-path="url(#d)"/><path d="M0 0c12.736 0 25.505-.56 38.212.09 91.477 4.666 181.808 14.423 267.474 50.917C410.547 95.678 494.895 161.345 538.79 270.318c28.125 69.84 30.672 143.398 31.019 217.268.25 52.976-15.843 100.12-48.701 141.734-8.559 10.836-18.244 18.265-31.816 22.885-122.573 41.688-243.209 88.518-361.638 140.808-95.806 42.3-190.728 86.573-278.605 144.277-24.924 16.369-49.088 33.906-68.714 56.61-38.852 44.96-18.05 114.842 38.815 131.59 13.033 3.84 26.372 5.112 39.863 5.075 55.936-.13 109.629-13.651 162.191-30.458 112.497-35.966 227.542-51.982 345.332-48.274 54.274 1.709 100.712 21.842 134.927 65.502 24.465 31.221 47.677 63.431 72.432 94.41 21.479 26.886 32.528 57.971 38.188 90.959 7.005 40.876-13.042 57.118-52.9 45.395-137.611-40.493-278.888-45.989-420.919-42.835-96.371 2.142-192.226 11.472-287.86 23.224-7.668.941-14.908 1.326-22.375-3.379-34.213-21.566-67.654-44.033-97.022-72.115-69.514-66.48-111.236-149.92-139.91-239.512-29.245-91.377-8.953-174.721 54.622-247.071 24.462-27.833 52.418-51.698 82.391-73.335 74.348-53.677 156.749-93.347 237.08-136.662 65.436-35.279 131.788-69.331 184.449-123.737 73.065-75.486 51.001-209.348-43.031-257.919-50.095-25.878-103.95-32.631-158.904-23.043-81.641 14.235-121.953 55.587-139.105 138.202-6.715 32.379-32.142 41.744-63.309 23.32-44.535-26.318-74.975-92.072-66.008-144.904 11.299-66.611 55.463-106.433 113.199-133.475C-141.82 4.089-71.187-.76 0 0" style="fill:#fff;fill-opacity:1;fill-rule:nonzero;stroke:none" transform="matrix(.00814 0 0 -.00814 24.029 11.166)" clip-path="url(#e)"/><path d="m0 0-25.705-149.225h-124.058l78.005 445.895H113.35c47.123 0 82.821-10.353 106.919-31.235 24.099-20.888 36.06-49.269 36.06-85.325 0-9.282-1.072-20.17-3.035-32.665-5.176-28.206-15.89-53.372-32.486-75.686-16.601-22.312-38.381-39.806-65.69-52.479C127.808 6.428 96.392 0 61.228 0Zm127.986 147.445c.891 5.889 1.249 9.994 1.249 12.495 0 24.454-15.53 36.59-46.588 36.59H35.344L17.671 97.642h47.303c18.924 0 33.56 4.462 43.734 13.21 10.173 8.746 16.601 21.06 19.278 36.593m267 217.768c19.28 0 34.452-4.818 45.342-14.459 10.888-9.638 16.421-22.312 16.421-37.839 0-13.032-3.747-25.171-11.067-36.415-7.32-11.246-17.494-20.17-30.167-26.776-12.851-6.604-27.31-9.819-43.199-9.819-19.813 0-34.984 4.82-45.873 14.459-10.888 9.638-16.422 21.955-16.422 37.129zm32.668-161.183-62.297-353.255H241.299l62.296 353.255ZM550.426-46.587h155.475l-18.742-102.638H396.204l17.493 97.639 170.109 152.978H443.327l18.385 102.638h282.031l-17.67-96.928zm301.634 0h155.476l-18.743-102.638H697.835l17.492 97.639 170.112 152.978H744.96l18.382 102.638h282.035l-17.675-96.928zM1394.844 70.51c0-10.532-1.069-22.671-3.034-36.415-3.747-14.281-6.781-23.92-8.924-29.096h-232.943c-.537-3.391-.714-8.212-.714-14.459 0-30.165 14.1-45.339 42.302-45.339 12.14 0 22.671 3.035 31.775 8.924 9.105 5.891 15.885 13.566 20.351 23.204h131.017c-14.278-38.556-38.734-69.97-73.54-94.426-34.809-24.454-75.151-36.59-121.027-36.59-46.23 0-82.644 12.851-109.419 38.557-26.956 25.524-40.341 60.865-40.341 105.67 0 13.388 1.25 27.669 3.747 42.843 6.249 35.7 19.459 66.76 39.448 93.177 19.816 26.418 44.45 46.768 73.901 60.869 29.453 14.1 61.405 21.062 96.214 21.062 47.122 0 84.072-12.317 111.028-37.129 26.774-24.81 40.159-58.368 40.159-100.852m-123.342 0c0 13.388-4.105 23.738-12.493 30.701-8.393 6.962-19.28 10.356-32.311 10.356-16.242 0-30.344-4.643-42.125-13.925-11.782-9.282-20.171-22.849-25.171-40.876h110.849c.894 3.393 1.251 7.855 1.251 13.744m428.188 136.732-23.92-132.271h-35.341c-27.668 0-49.446-5.354-65.155-16.061-15.709-10.715-25.882-29.277-30.525-55.697l-27.128-152.438h-123.348l61.585 353.255h124.059l-11.962-66.048c18.032 20.887 38.559 37.666 61.585 50.34 22.847 12.673 46.23 18.92 70.15 18.92m115.81 157.971c19.279 0 34.453-4.818 45.342-14.459 10.888-9.638 16.423-22.312 16.423-37.839 0-13.032-3.75-25.171-11.069-36.415-7.316-11.246-17.49-20.17-30.167-26.776-12.852-6.604-27.31-9.819-43.196-9.819-19.813 0-34.987 4.82-45.875 14.459-10.889 9.638-16.42 21.955-16.42 37.129zm32.667-161.183-62.295-353.255h-124.059l62.296 353.255zm279.499-56.051 10.173 56.051h123.347l-62.834-353.255h-122.81l9.997 56.05c-11.781-18.386-27.666-33.202-47.837-44.092-20.171-10.887-42.841-16.42-68.009-16.42-38.199 0-68.008 12.317-89.61 36.949-21.597 24.456-32.485 58.546-32.485 102.279 0 15.174 1.607 32.668 4.999 52.838 6.247 34.807 18.028 65.152 35.341 90.679 17.136 25.525 37.845 45.163 62.297 58.905 24.278 13.744 50.161 20.528 77.47 20.528 26.421 0 48.376-5.535 65.869-16.423 17.314-10.89 28.738-25.702 34.092-44.089m-149.764-120.31c-1.247-6.247-1.963-12.317-1.963-18.206 0-17.674 4.82-31.06 14.638-40.523 9.638-9.458 22.67-14.276 38.912-14.276 18.387 0 34.988 6.604 49.446 19.631 14.46 13.032 23.564 30.704 27.31 53.374 1.251 6.248 1.965 12.495 1.965 18.384 0 17.138-4.819 30.526-14.458 39.987-9.64 9.46-22.49 14.103-38.379 14.103-19.456 0-36.057-6.429-50.158-19.102-14.102-12.851-23.206-30.704-27.313-53.372m646.821-176.894-30.349 49.088c-6.246-6.248-13.386-12.139-21.416-17.675-12.498-11.243-27.313-20.17-44.626-26.415-17.317-6.247-35.522-9.46-54.801-9.46-40.698 0-71.758 10.351-93.178 31.238-21.422 20.885-32.13 47.836-32.13 80.86 0 10.173.892 19.277 2.5 27.667 6.246 34.81 20.526 63.903 42.48 87.288 21.956 23.383 47.661 37.842 77.114 43.731l-5.533 15.708c-4.284 13.391-6.427 26.064-6.427 37.842 0 6.25.716 13.213 1.962 20.885 3.392 18.745 11.782 36.592 25.171 53.549 13.385 16.779 31.238 30.346 53.55 40.524 22.313 10.172 47.661 15.349 76.22 15.349 71.22 0 111.562-28.381 120.846-84.966 1.248-7.497 1.962-14.993 1.962-22.671 0-13.385-1.962-28.737-5.711-45.872h-115.312c2.143 10.531 3.213 18.562 3.213 24.451 1.249 17.674-5.891 26.42-21.418 26.42-7.496 0-13.747-2.498-18.567-7.499-4.818-4.996-7.315-11.244-7.315-18.921 0-4.637.893-9.099 2.677-13.208 1.604-4.105 4.638-9.638 8.747-16.42l163.683-291.493zM2542.256-3.747c0 9.639-3.393 17.491-10.355 23.383-6.962 5.889-16.066 8.748-26.956 8.748-13.743 0-25.347-4.286-34.447-12.854-9.287-8.743-13.926-20.173-13.926-34.451 0-9.994 3.213-17.85 9.818-23.561 6.427-5.713 15.35-8.567 26.596-8.567 12.317 0 22.849 3.747 31.953 11.065 8.924 7.322 14.458 16.96 16.601 28.738.534 1.608.716 4.108.716 7.499m608.257 82.468 131.734-227.946h-149.405L3027.169 47.839l-34.629-197.064h-124.059l78.006 445.895h124.058l-33.917-193.317 175.646 193.317h147.98zm539.038-8.211c0-10.532-1.07-22.671-3.035-36.415-3.747-14.281-6.782-23.92-8.923-29.096h-232.947c-.535-3.391-.712-8.212-.712-14.459 0-30.165 14.101-45.339 42.302-45.339 12.14 0 22.672 3.035 31.777 8.924 9.104 5.891 15.884 13.566 20.346 23.204h131.021c-14.278-38.556-38.734-69.97-73.544-94.426-34.805-24.454-75.147-36.59-121.023-36.59-46.23 0-82.644 12.851-109.418 38.557-26.957 25.524-40.342 60.865-40.342 105.67 0 13.388 1.25 27.669 3.747 42.843 6.25 35.7 19.458 66.76 39.449 93.177 19.813 26.418 44.449 46.768 73.899 60.869 29.454 14.1 61.405 21.062 96.211 21.062 47.127 0 84.076-12.317 111.031-37.129 26.775-24.81 40.161-58.368 40.161-100.852m-123.343 0c0 13.388-4.104 23.738-12.498 30.701-8.389 6.962-19.277 10.356-32.306 10.356-16.244 0-30.343-4.643-42.129-13.925-11.778-9.282-20.17-22.849-25.168-40.876h110.851c.892 3.393 1.25 7.855 1.25 13.744m121.521-219.735 82.468 466.068h123.347l-29.634-168.864c12.318 18.921 28.206 33.739 48.019 44.445 19.636 10.713 42.126 16.067 67.294 16.067 36.593 0 65.866-11.961 88.178-35.878 22.313-23.922 33.379-56.943 33.379-98.891 0-15.53-1.426-30.882-4.462-46.053-6.604-36.949-18.92-69.08-36.772-96.568-17.847-27.491-39.447-48.554-64.615-63.013-25.167-14.459-51.942-21.775-79.967-21.775-24.814 0-45.161 5.355-61.407 16.064-16.244 10.712-26.953 25.525-32.487 44.448l-9.995-56.05zm282.747 176.894c1.251 7.141 1.785 13.388 1.785 18.924 0 16.779-4.821 29.986-14.459 39.447-9.64 9.46-22.49 14.103-38.376 14.103-18.92 0-35.522-6.429-49.803-19.461-14.282-13.026-23.563-30.701-27.668-53.013-1.25-6.247-1.965-12.139-1.965-17.494 0-17.672 5-31.413 14.816-41.054 9.819-9.639 22.852-14.457 38.738-14.457 18.92 0 35.521 6.423 49.799 19.277 14.281 12.674 23.386 30.702 27.133 53.728m421.049 120.31 10.174 56.051h123.342l-62.83-353.255h-122.808l9.996 56.05c-11.781-18.386-27.668-33.202-47.837-44.092-20.172-10.887-42.842-16.42-68.012-16.42-38.199 0-68.01 12.317-89.607 36.949-21.597 24.456-32.486 58.546-32.486 102.279 0 15.174 1.606 32.668 5 52.838 6.246 34.807 18.026 65.152 35.341 90.679 17.136 25.525 37.842 45.163 62.296 58.905 24.275 13.744 50.157 20.528 77.471 20.528 26.416 0 48.373-5.535 65.866-16.423 17.316-10.89 28.739-25.702 34.094-44.089m-149.763-120.31c-1.25-6.247-1.962-12.317-1.962-18.206 0-17.674 4.82-31.06 14.636-40.523 9.638-9.458 22.669-14.276 38.914-14.276 18.385 0 34.986 6.604 49.445 19.631 14.459 13.032 23.562 30.704 27.309 53.374 1.25 6.248 1.965 12.495 1.965 18.384 0 17.138-4.819 30.526-14.458 39.987-9.638 9.46-22.493 14.103-38.38 14.103-19.455 0-36.056-6.429-50.161-19.102-14.099-12.851-23.201-30.704-27.308-53.372m272.717-176.894 82.465 466.068h123.344l-29.633-168.864c12.321 18.921 28.206 33.739 48.019 44.445 19.636 10.713 42.126 16.067 67.297 16.067 36.59 0 65.866-11.961 88.178-35.878 22.31-23.922 33.379-56.943 33.379-98.891 0-15.53-1.43-30.882-4.462-46.053-6.607-36.949-18.923-69.08-36.771-96.568-17.851-27.491-39.449-48.554-64.619-63.013-25.168-14.459-51.943-21.775-79.968-21.775-24.809 0-45.161 5.355-61.403 16.064-16.244 10.712-26.955 25.525-32.489 44.448l-9.996-56.05zm282.745 176.894c1.249 7.141 1.784 13.388 1.784 18.924 0 16.779-4.82 29.986-14.458 39.447-9.639 9.46-22.494 14.103-38.38 14.103-18.92 0-35.522-6.429-49.8-19.461-14.281-13.026-23.562-30.701-27.67-53.013-1.25-6.247-1.962-12.139-1.962-17.494 0-17.672 4.996-31.413 14.816-41.054 9.816-9.639 22.848-14.457 38.734-14.457 18.92 0 35.522 6.423 49.803 19.277 14.278 12.674 23.382 30.702 27.133 53.728" style="fill:#f36521;fill-opacity:1;fill-rule:nonzero;stroke:none" transform="matrix(.00814 0 0 -.00814 18.414 14.75)" clip-path="url(#f)"/></svg>